<svg version="1.1" xmlns="http://www.w3.org/2000/svg" xmlns:xlink="http://www.w3.org/1999/xlink" width="202.46503" height="285.83874" viewBox="0,0,202.46503,285.83874"><g transform="translate(-138.76748,-37.08063)"><g data-paper-data="{&quot;isPaintingLayer&quot;:true}" fill="#ff8e24" fill-rule="nonzero" stroke="none" stroke-width="1" stroke-linecap="butt" stroke-linejoin="miter" stroke-miterlimit="10" stroke-dasharray="" stroke-dashoffset="0" style="mix-blend-mode: normal"><path d="M157.61768,37.08063h6.42303h6.42303v6.35321v6.35321h5.8645h5.8645v-6.35321v-6.35321h6.42303h6.42303v19.26909v19.26909h-6.42303h-6.42303v-6.42303v-6.42303h-5.8645h-5.8645v6.42303v6.42303h-6.42303h-6.42303v-19.26909z"/><path d="M200.76368,37.08063h17.80296h17.80295v6.42303v6.42303h-5.72487h-5.72487v12.84606v12.84606h-6.42303h-6.42302v-12.84606v-12.84605h-5.65506h-5.65506v-6.42303z"/><path d="M241.95484,37.08063h6.74418h6.73021l3.6723,6.04603c2.02465,3.30926 3.88174,6.36718 4.13308,6.77211l0.46078,0.74004l4.10516,-6.7721l4.10515,-6.77211l6.74418,-0.01396h6.73022v19.26909v19.26909h-6.42303h-6.42303l-0.02793,-9.48095l-0.04189,-9.48095l-4.38441,6.7721c-2.41562,3.71418 -4.42631,6.77211 -4.4682,6.81399c-0.05585,0.02792 -2.06654,-3.00206 -4.48215,-6.73021c-2.41562,-3.71419 -4.44027,-6.80004 -4.49612,-6.82796c-0.06982,-0.04189 -0.11171,4.2029 -0.11171,9.4251v9.50887h-6.2834h-6.28339v-19.26909z"/><path d="M291.80313,37.08063h6.42302h6.42303v12.91588v12.91587h9.07602h9.07602v6.35322v6.35321h-15.49905h-15.49904v-19.26909z"/><path d="M240,93.35195c96.3175,0 101.23251,0.01396 101.23251,0.23738c-0.01396,0.94949 -18.40337,206.29093 -18.47318,206.37471c-0.15359,0.13963 -82.49403,22.94138 -82.89896,22.95535c-0.33512,0 -82.50799,-22.70401 -82.64762,-22.84364c-0.05585,-0.05585 -18.4313,-205.76033 -18.44526,-206.48641c0,-0.22341 4.91501,-0.23738 101.23252,-0.23738zM303.56006,135.52053h-63.61591c-63.49024,0 -63.61591,0.00001 -63.61591,0.27927c0,0.15359 1.53594,17.30029 3.42096,38.10531c1.88502,20.80503 3.42096,37.9238 3.42096,38.0355c0,0.16755 6.22754,0.20945 43.94189,0.29323c24.17013,0.04189 43.94189,0.09774 43.95585,0.12567c0.02792,0.04189 -2.90433,32.68763 -2.93225,32.74348c-0.01396,0.01397 -6.38114,1.73143 -14.13066,3.81193l-14.10273,3.784l-14.01896,-3.74211c-7.70764,-2.05257 -14.06085,-3.77004 -14.1167,-3.81193c-0.05585,-0.05585 -0.48871,-4.48216 -0.94949,-9.85796c-0.47475,-5.3758 -0.87968,-9.9138 -0.92157,-10.09533l-0.05586,-0.30719h-12.77624h-12.77624l0.08378,0.58645c0.04189,0.33512 0.85175,9.29943 1.80124,19.91139c0.94949,10.62592 1.74539,19.3389 1.77331,19.36683c0.08378,0.08378 51.84501,14.4937 51.98465,14.47974c0.18152,-0.01396 51.92879,-14.40992 51.95672,-14.45182c0.01396,-0.01396 1.56387,-17.3701 3.46285,-38.56609c1.88502,-21.196 3.47681,-38.74762 3.51871,-38.99896l0.06982,-0.44682h-46.23184c-43.92793,0 -46.21788,-0.01396 -46.21788,-0.25134c0,-0.12567 -0.50267,-5.76676 -1.11704,-12.5249c-0.61437,-6.75815 -1.11705,-12.45509 -1.11705,-12.6785v-0.377h48.43802h48.45197l0.06982,-0.60041c0.05585,-0.32115 0.55853,-5.76676 1.13101,-12.10601c0.58645,-6.33925 1.08912,-11.78486 1.13101,-12.11998z"/></g></g></svg>